# xmcd
#
# Track frame offsets: 
#        150
#        20141
#        33543
#        59891
#        78990
#        106616
#        126658
#        154692
#        177644
#        202849
#        217549
#
# Disc length: 3104 seconds
#
# Revision: 1
# Processed by: cddbd v1.4PL0 Copyright (c) Steve Scherf et al.
# Submitted via: ExactAudioCopy v0.90a11
#
DISCID=960c1e0b
DTITLE=Various Artist - Doublewide
DYEAR=1900
DGENRE=
TTITLE0=High and Lonesome - Strawberry Wine
TTITLE1=Bo Ramsey - 555x2
TTITLE2=Tom Jessen's Dimestore Outfit - Sanctuary
TTITLE3=High and Lonesome - I Gave Up On You
TTITLE4=David Zollo - Elizabeth Smiles
TTITLE5=BeJae Fleming - Iowa
TTITLE6=High and Lonesome - Shining Softly
TTITLE7=Bo Ramsey - I Don't Know
TTITLE8=Joe Price - 25 Below
TTITLE9=Bo Ramsey - In The Weeds
TTITLE10=Greg Brown and the Trailer Records All-Stars - Tell You A Story
EXTD=
EXTT0=
EXTT1=
EXTT2=
EXTT3=
EXTT4=
EXTT5=
EXTT6=
EXTT7=
EXTT8=
EXTT9=
EXTT10=
PLAYORDER=
